<?xml version="1.0" encoding="UTF-8"?>
<svg id="Layer_1" data-name="Layer 1" xmlns="http://www.w3.org/2000/svg" viewBox="0 0 512 512">
  <defs>
    <style>
      .cls-1 {
        fill: #fff;
      }
    </style>
  </defs>
  <path class="cls-1" d="m192.01,182.27c-.97-2.62-1.51-4.32-2.21-5.95-15.96-37.35-31.96-74.69-47.91-112.04-4.4-10.31-.58-16.04,10.68-16.05,38.65-.02,77.31-.02,115.96,0,8.39,0,11.16,2.21,13.39,10.33,16.96,61.72,33.94,123.43,50.89,185.15,2.41,8.76-1.26,13.56-10.25,13.64-1.17,0-2.33,0-3.5,0-18.66,0-37.32,0-55.98,0h-6.63c.78,3.02,1.24,5.23,1.92,7.37,12.1,37.69,24.2,75.38,36.38,113.05,1.22,3.79,1.62,7.65-1.72,10.04-2.3,1.65-5.82,2.59-8.61,2.27-2.24-.26-4.51-2.62-6.24-4.53-24.8-27.44-49.5-54.96-74.23-82.46-31.08-34.56-62.17-69.11-93.24-103.68-1.11-1.23-2.26-2.49-3.07-3.92-2.93-5.19-.45-11.13,5.35-12.53,2.39-.58,4.95-.67,7.43-.67,21.66-.05,43.32-.03,64.98-.03,1.93,0,3.86,0,6.61,0Zm22.27-119.9c-15.82,0-31.65,0-47.47,0-1.5,0-3.28-.37-4.41.31-1.5.9-3.54,2.73-3.44,4.01.12,1.62,1.87,3.73,3.46,4.47,1.82.85,4.23.55,6.39.55,28.98.03,57.97.1,86.95-.06,4.35-.02,6.57,1.19,7.77,5.61,11.96,44.12,24.11,88.19,36.21,132.28,2.64,9.62,5.32,19.22,7.96,28.84.83,3.03,2.32,5.49,5.88,4.59,3.47-.87,4.02-3.56,3.03-6.72-.2-.63-.24-1.31-.42-1.95-15.2-55.15-30.45-110.3-45.54-165.48-1.27-4.65-3.54-6.57-8.38-6.52-15.99.18-31.98.07-47.97.07Zm-47.71,133.97c-9.49,0-18.98.04-28.46-.02-3.16-.02-6.01.7-6.02,4.34,0,3.55,2.76,4.54,5.94,4.54,18.81,0,37.62,0,56.43,0,3.12,0,5.88-.71,5.93-4.45.05-3.81-2.72-4.43-5.85-4.42-9.32.04-18.64.01-27.97.01Zm102.35,146.69c-.72-2.58-1.11-4.19-1.61-5.76-4.75-14.87-9.5-29.75-14.29-44.61-.46-1.41-.76-3.22-1.78-4.02-1.38-1.09-3.87-2.35-5.01-1.79-1.48.73-2.36,3.11-3,4.95-.31.9.49,2.21.84,3.32,4.82,15.02,9.64,30.04,14.47,45.05.46,1.42.64,3.2,1.6,4.12,1.29,1.23,3.41,2.7,4.82,2.39,1.6-.34,2.82-2.52,3.95-3.65Z"/>
</svg>